<mxfile host="Electron" agent="Mozilla/5.0 (Windows NT 10.0; Win64; x64) AppleWebKit/537.36 (KHTML, like Gecko) draw.io/27.0.2 Chrome/134.0.6998.205 Electron/35.3.0 Safari/537.36" version="27.0.2">
  <diagram id="C5RBs43oDa-KdzZeNtuy" name="Page-1">
    <mxGraphModel dx="703" dy="880" grid="1" gridSize="10" guides="1" tooltips="1" connect="1" arrows="1" fold="1" page="1" pageScale="1" pageWidth="827" pageHeight="1169" math="0" shadow="0" adaptiveColors="none">
      <root>
        <mxCell id="WIyWlLk6GJQsqaUBKTNV-0" />
        <mxCell id="WIyWlLk6GJQsqaUBKTNV-1" parent="WIyWlLk6GJQsqaUBKTNV-0" />
        <mxCell id="0qa3lfIJmY0XLaQe9M-v-51" value="" style="edgeStyle=orthogonalEdgeStyle;rounded=0;orthogonalLoop=1;jettySize=auto;html=1;" parent="WIyWlLk6GJQsqaUBKTNV-1" source="LQ4Yb-oKMw_6fip0Znt3-0" target="0qa3lfIJmY0XLaQe9M-v-50" edge="1">
          <mxGeometry relative="1" as="geometry" />
        </mxCell>
        <mxCell id="LQ4Yb-oKMw_6fip0Znt3-0" value="START" style="ellipse;whiteSpace=wrap;html=1;fillColor=#a20025;fontColor=#ffffff;strokeColor=default;shadow=1;" parent="WIyWlLk6GJQsqaUBKTNV-1" vertex="1">
          <mxGeometry x="354" y="120" width="120" height="80" as="geometry" />
        </mxCell>
        <mxCell id="9iVE0iw09EIqZoM109iC-6" value="TRUE" style="text;html=1;align=center;verticalAlign=middle;resizable=0;points=[];autosize=1;strokeColor=default;fillColor=#05FF1E;fontColor=#ffffff;rounded=0;glass=0;shadow=1;gradientColor=none;" parent="WIyWlLk6GJQsqaUBKTNV-1" vertex="1">
          <mxGeometry x="420" y="520" width="60" height="30" as="geometry" />
        </mxCell>
        <mxCell id="0qa3lfIJmY0XLaQe9M-v-46" style="edgeStyle=orthogonalEdgeStyle;rounded=0;orthogonalLoop=1;jettySize=auto;html=1;exitX=0.5;exitY=1;exitDx=0;exitDy=0;entryX=0.5;entryY=0;entryDx=0;entryDy=0;" parent="WIyWlLk6GJQsqaUBKTNV-1" source="0qa3lfIJmY0XLaQe9M-v-5" target="0qa3lfIJmY0XLaQe9M-v-41" edge="1">
          <mxGeometry relative="1" as="geometry" />
        </mxCell>
        <mxCell id="0qa3lfIJmY0XLaQe9M-v-5" value="int c;" style="rounded=0;whiteSpace=wrap;html=1;fillColor=#008a00;fontColor=#ffffff;strokeColor=default;shadow=1;" parent="WIyWlLk6GJQsqaUBKTNV-1" vertex="1">
          <mxGeometry x="354" y="270" width="120" height="20" as="geometry" />
        </mxCell>
        <mxCell id="0qa3lfIJmY0XLaQe9M-v-49" style="edgeStyle=orthogonalEdgeStyle;rounded=0;orthogonalLoop=1;jettySize=auto;html=1;exitX=0.5;exitY=1;exitDx=0;exitDy=0;entryX=0.5;entryY=0;entryDx=0;entryDy=0;" parent="WIyWlLk6GJQsqaUBKTNV-1" source="0qa3lfIJmY0XLaQe9M-v-8" target="0qa3lfIJmY0XLaQe9M-v-48" edge="1">
          <mxGeometry relative="1" as="geometry" />
        </mxCell>
        <mxCell id="0qa3lfIJmY0XLaQe9M-v-56" style="edgeStyle=orthogonalEdgeStyle;rounded=0;orthogonalLoop=1;jettySize=auto;html=1;entryX=0.5;entryY=0;entryDx=0;entryDy=0;" parent="WIyWlLk6GJQsqaUBKTNV-1" source="0qa3lfIJmY0XLaQe9M-v-8" target="0qa3lfIJmY0XLaQe9M-v-37" edge="1">
          <mxGeometry relative="1" as="geometry">
            <Array as="points">
              <mxPoint x="90" y="460" />
              <mxPoint x="90" y="1500" />
              <mxPoint x="440" y="1500" />
            </Array>
          </mxGeometry>
        </mxCell>
        <mxCell id="0qa3lfIJmY0XLaQe9M-v-8" value="while ((c = getchar())&lt;div&gt;!= EOF)&lt;/div&gt;" style="rhombus;whiteSpace=wrap;html=1;fillColor=#647687;strokeColor=#314354;shadow=1;fontColor=#ffffff;" parent="WIyWlLk6GJQsqaUBKTNV-1" vertex="1">
          <mxGeometry x="354" y="400" width="120" height="120" as="geometry" />
        </mxCell>
        <mxCell id="0qa3lfIJmY0XLaQe9M-v-34" value="FALSE" style="text;html=1;align=center;verticalAlign=middle;resizable=0;points=[];autosize=1;strokeColor=default;fillColor=#FF0000;fontColor=#ffffff;rounded=0;glass=0;shadow=1;gradientColor=none;" parent="WIyWlLk6GJQsqaUBKTNV-1" vertex="1">
          <mxGeometry x="290" y="465" width="60" height="30" as="geometry" />
        </mxCell>
        <mxCell id="0qa3lfIJmY0XLaQe9M-v-69" value="" style="edgeStyle=orthogonalEdgeStyle;rounded=0;orthogonalLoop=1;jettySize=auto;html=1;" parent="WIyWlLk6GJQsqaUBKTNV-1" source="0qa3lfIJmY0XLaQe9M-v-36" target="0qa3lfIJmY0XLaQe9M-v-68" edge="1">
          <mxGeometry relative="1" as="geometry" />
        </mxCell>
        <mxCell id="0qa3lfIJmY0XLaQe9M-v-36" value="printf(&#39; &#39;)&amp;nbsp;" style="shape=parallelogram;perimeter=parallelogramPerimeter;whiteSpace=wrap;html=1;fixedSize=1;fillColor=#0050ef;fontColor=#ffffff;strokeColor=#001DBC;" parent="WIyWlLk6GJQsqaUBKTNV-1" vertex="1">
          <mxGeometry x="354" y="960" width="120" height="60" as="geometry" />
        </mxCell>
        <mxCell id="0qa3lfIJmY0XLaQe9M-v-37" value="END" style="ellipse;whiteSpace=wrap;html=1;fillColor=#a20025;fontColor=#ffffff;strokeColor=default;shadow=1;" parent="WIyWlLk6GJQsqaUBKTNV-1" vertex="1">
          <mxGeometry x="380" y="1530" width="120" height="80" as="geometry" />
        </mxCell>
        <mxCell id="0qa3lfIJmY0XLaQe9M-v-45" style="edgeStyle=orthogonalEdgeStyle;rounded=0;orthogonalLoop=1;jettySize=auto;html=1;exitX=0.5;exitY=1;exitDx=0;exitDy=0;entryX=0.5;entryY=0;entryDx=0;entryDy=0;" parent="WIyWlLk6GJQsqaUBKTNV-1" source="0qa3lfIJmY0XLaQe9M-v-41" target="0qa3lfIJmY0XLaQe9M-v-44" edge="1">
          <mxGeometry relative="1" as="geometry" />
        </mxCell>
        <mxCell id="0qa3lfIJmY0XLaQe9M-v-41" value="int Tab = 8;" style="rounded=0;whiteSpace=wrap;html=1;fillColor=#008a00;fontColor=#ffffff;strokeColor=default;shadow=1;" parent="WIyWlLk6GJQsqaUBKTNV-1" vertex="1">
          <mxGeometry x="354" y="310" width="120" height="20" as="geometry" />
        </mxCell>
        <mxCell id="0qa3lfIJmY0XLaQe9M-v-47" value="" style="edgeStyle=orthogonalEdgeStyle;rounded=0;orthogonalLoop=1;jettySize=auto;html=1;" parent="WIyWlLk6GJQsqaUBKTNV-1" source="0qa3lfIJmY0XLaQe9M-v-44" target="0qa3lfIJmY0XLaQe9M-v-8" edge="1">
          <mxGeometry relative="1" as="geometry" />
        </mxCell>
        <mxCell id="0qa3lfIJmY0XLaQe9M-v-44" value="int pos = 0;" style="rounded=0;whiteSpace=wrap;html=1;fillColor=#008a00;fontColor=#ffffff;strokeColor=default;shadow=1;" parent="WIyWlLk6GJQsqaUBKTNV-1" vertex="1">
          <mxGeometry x="354" y="350" width="120" height="20" as="geometry" />
        </mxCell>
        <mxCell id="0qa3lfIJmY0XLaQe9M-v-54" value="" style="edgeStyle=orthogonalEdgeStyle;rounded=0;orthogonalLoop=1;jettySize=auto;html=1;" parent="WIyWlLk6GJQsqaUBKTNV-1" source="0qa3lfIJmY0XLaQe9M-v-48" target="0qa3lfIJmY0XLaQe9M-v-53" edge="1">
          <mxGeometry relative="1" as="geometry" />
        </mxCell>
        <mxCell id="0qa3lfIJmY0XLaQe9M-v-66" style="edgeStyle=orthogonalEdgeStyle;rounded=0;orthogonalLoop=1;jettySize=auto;html=1;entryX=0.5;entryY=0;entryDx=0;entryDy=0;" parent="WIyWlLk6GJQsqaUBKTNV-1" source="0qa3lfIJmY0XLaQe9M-v-48" target="0qa3lfIJmY0XLaQe9M-v-65" edge="1">
          <mxGeometry relative="1" as="geometry">
            <Array as="points">
              <mxPoint x="230" y="645" />
              <mxPoint x="230" y="1290" />
              <mxPoint x="440" y="1290" />
            </Array>
          </mxGeometry>
        </mxCell>
        <mxCell id="0qa3lfIJmY0XLaQe9M-v-48" value="if (c == &#39;\t&#39;)" style="rhombus;whiteSpace=wrap;html=1;fillColor=#647687;strokeColor=#314354;shadow=1;fontColor=#ffffff;" parent="WIyWlLk6GJQsqaUBKTNV-1" vertex="1">
          <mxGeometry x="354" y="585" width="120" height="120" as="geometry" />
        </mxCell>
        <mxCell id="0qa3lfIJmY0XLaQe9M-v-52" style="edgeStyle=orthogonalEdgeStyle;rounded=0;orthogonalLoop=1;jettySize=auto;html=1;exitX=0.5;exitY=1;exitDx=0;exitDy=0;" parent="WIyWlLk6GJQsqaUBKTNV-1" source="0qa3lfIJmY0XLaQe9M-v-50" target="0qa3lfIJmY0XLaQe9M-v-5" edge="1">
          <mxGeometry relative="1" as="geometry" />
        </mxCell>
        <mxCell id="0qa3lfIJmY0XLaQe9M-v-50" value="int space = 0;" style="rounded=0;whiteSpace=wrap;html=1;fillColor=#008a00;fontColor=#ffffff;strokeColor=default;shadow=1;" parent="WIyWlLk6GJQsqaUBKTNV-1" vertex="1">
          <mxGeometry x="354" y="230" width="120" height="20" as="geometry" />
        </mxCell>
        <mxCell id="0qa3lfIJmY0XLaQe9M-v-64" value="" style="edgeStyle=orthogonalEdgeStyle;rounded=0;orthogonalLoop=1;jettySize=auto;html=1;" parent="WIyWlLk6GJQsqaUBKTNV-1" source="0qa3lfIJmY0XLaQe9M-v-53" target="0qa3lfIJmY0XLaQe9M-v-57" edge="1">
          <mxGeometry relative="1" as="geometry" />
        </mxCell>
        <mxCell id="0qa3lfIJmY0XLaQe9M-v-53" value="space = Tab - pos;" style="rounded=0;whiteSpace=wrap;html=1;fillColor=#008a00;fontColor=#ffffff;strokeColor=default;shadow=1;" parent="WIyWlLk6GJQsqaUBKTNV-1" vertex="1">
          <mxGeometry x="354" y="740" width="120" height="20" as="geometry" />
        </mxCell>
        <mxCell id="0qa3lfIJmY0XLaQe9M-v-55" value="TRUE" style="text;html=1;align=center;verticalAlign=middle;resizable=0;points=[];autosize=1;strokeColor=default;fillColor=#05FF1E;fontColor=#ffffff;rounded=0;glass=0;shadow=1;gradientColor=none;" parent="WIyWlLk6GJQsqaUBKTNV-1" vertex="1">
          <mxGeometry x="430" y="700" width="60" height="30" as="geometry" />
        </mxCell>
        <mxCell id="0qa3lfIJmY0XLaQe9M-v-63" value="" style="edgeStyle=orthogonalEdgeStyle;rounded=0;orthogonalLoop=1;jettySize=auto;html=1;" parent="WIyWlLk6GJQsqaUBKTNV-1" source="0qa3lfIJmY0XLaQe9M-v-57" target="0qa3lfIJmY0XLaQe9M-v-36" edge="1">
          <mxGeometry relative="1" as="geometry" />
        </mxCell>
        <mxCell id="cf03u9RJQEJu3viV26ft-1" style="edgeStyle=orthogonalEdgeStyle;rounded=0;orthogonalLoop=1;jettySize=auto;html=1;entryX=0.5;entryY=0;entryDx=0;entryDy=0;" edge="1" parent="WIyWlLk6GJQsqaUBKTNV-1" source="0qa3lfIJmY0XLaQe9M-v-57" target="cf03u9RJQEJu3viV26ft-0">
          <mxGeometry relative="1" as="geometry">
            <Array as="points">
              <mxPoint x="280" y="860" />
              <mxPoint x="280" y="1100" />
              <mxPoint x="414" y="1100" />
            </Array>
          </mxGeometry>
        </mxCell>
        <mxCell id="0qa3lfIJmY0XLaQe9M-v-57" value="for(int i = 0; i &amp;lt; spaces; i++)" style="rhombus;whiteSpace=wrap;html=1;fillColor=#647687;strokeColor=#314354;shadow=1;fontColor=#ffffff;" parent="WIyWlLk6GJQsqaUBKTNV-1" vertex="1">
          <mxGeometry x="354" y="800" width="120" height="120" as="geometry" />
        </mxCell>
        <mxCell id="0qa3lfIJmY0XLaQe9M-v-77" style="edgeStyle=orthogonalEdgeStyle;rounded=0;orthogonalLoop=1;jettySize=auto;html=1;entryX=1;entryY=0.5;entryDx=0;entryDy=0;" parent="WIyWlLk6GJQsqaUBKTNV-1" source="0qa3lfIJmY0XLaQe9M-v-58" target="0qa3lfIJmY0XLaQe9M-v-8" edge="1">
          <mxGeometry relative="1" as="geometry">
            <Array as="points">
              <mxPoint x="600" y="1440" />
              <mxPoint x="600" y="460" />
            </Array>
          </mxGeometry>
        </mxCell>
        <mxCell id="0qa3lfIJmY0XLaQe9M-v-58" value="pos++;" style="rounded=0;whiteSpace=wrap;html=1;fillColor=#008a00;fontColor=#ffffff;strokeColor=default;shadow=1;" parent="WIyWlLk6GJQsqaUBKTNV-1" vertex="1">
          <mxGeometry x="380" y="1430" width="120" height="20" as="geometry" />
        </mxCell>
        <mxCell id="0qa3lfIJmY0XLaQe9M-v-67" value="" style="edgeStyle=orthogonalEdgeStyle;rounded=0;orthogonalLoop=1;jettySize=auto;html=1;entryX=0.5;entryY=0;entryDx=0;entryDy=0;" parent="WIyWlLk6GJQsqaUBKTNV-1" source="0qa3lfIJmY0XLaQe9M-v-65" target="0qa3lfIJmY0XLaQe9M-v-58" edge="1">
          <mxGeometry relative="1" as="geometry" />
        </mxCell>
        <mxCell id="0qa3lfIJmY0XLaQe9M-v-65" value="putchar(c);&amp;nbsp;" style="shape=parallelogram;perimeter=parallelogramPerimeter;whiteSpace=wrap;html=1;fixedSize=1;fillColor=#0050ef;fontColor=#ffffff;strokeColor=#001DBC;" parent="WIyWlLk6GJQsqaUBKTNV-1" vertex="1">
          <mxGeometry x="380" y="1330" width="120" height="60" as="geometry" />
        </mxCell>
        <mxCell id="0qa3lfIJmY0XLaQe9M-v-68" value="pos++;" style="rounded=0;whiteSpace=wrap;html=1;fillColor=#008a00;fontColor=#ffffff;strokeColor=default;shadow=1;" parent="WIyWlLk6GJQsqaUBKTNV-1" vertex="1">
          <mxGeometry x="354" y="1050" width="120" height="20" as="geometry" />
        </mxCell>
        <mxCell id="0qa3lfIJmY0XLaQe9M-v-70" value="FALSE" style="text;html=1;align=center;verticalAlign=middle;resizable=0;points=[];autosize=1;strokeColor=default;fillColor=#FF0000;fontColor=#ffffff;rounded=0;glass=0;shadow=1;gradientColor=none;" parent="WIyWlLk6GJQsqaUBKTNV-1" vertex="1">
          <mxGeometry x="300" y="660" width="60" height="30" as="geometry" />
        </mxCell>
        <mxCell id="0qa3lfIJmY0XLaQe9M-v-71" value="FALSE" style="text;html=1;align=center;verticalAlign=middle;resizable=0;points=[];autosize=1;strokeColor=default;fillColor=#FF0000;fontColor=#ffffff;rounded=0;glass=0;shadow=1;gradientColor=none;" parent="WIyWlLk6GJQsqaUBKTNV-1" vertex="1">
          <mxGeometry x="290" y="870" width="60" height="30" as="geometry" />
        </mxCell>
        <mxCell id="cf03u9RJQEJu3viV26ft-4" value="" style="edgeStyle=orthogonalEdgeStyle;rounded=0;orthogonalLoop=1;jettySize=auto;html=1;" edge="1" parent="WIyWlLk6GJQsqaUBKTNV-1" source="cf03u9RJQEJu3viV26ft-0" target="cf03u9RJQEJu3viV26ft-3">
          <mxGeometry relative="1" as="geometry" />
        </mxCell>
        <mxCell id="cf03u9RJQEJu3viV26ft-0" value="Tab = Tab+9;" style="rounded=0;whiteSpace=wrap;html=1;fillColor=#008a00;fontColor=#ffffff;strokeColor=default;shadow=1;" vertex="1" parent="WIyWlLk6GJQsqaUBKTNV-1">
          <mxGeometry x="354" y="1120" width="120" height="20" as="geometry" />
        </mxCell>
        <mxCell id="cf03u9RJQEJu3viV26ft-5" style="edgeStyle=orthogonalEdgeStyle;rounded=0;orthogonalLoop=1;jettySize=auto;html=1;entryX=1;entryY=0.5;entryDx=0;entryDy=0;" edge="1" parent="WIyWlLk6GJQsqaUBKTNV-1" source="cf03u9RJQEJu3viV26ft-3" target="0qa3lfIJmY0XLaQe9M-v-8">
          <mxGeometry relative="1" as="geometry">
            <Array as="points">
              <mxPoint x="590" y="1199" />
              <mxPoint x="590" y="470" />
              <mxPoint x="474" y="470" />
            </Array>
          </mxGeometry>
        </mxCell>
        <mxCell id="cf03u9RJQEJu3viV26ft-3" value="continue;" style="shape=parallelogram;perimeter=parallelogramPerimeter;whiteSpace=wrap;html=1;fixedSize=1;fillColor=#0050ef;fontColor=#ffffff;strokeColor=#001DBC;" vertex="1" parent="WIyWlLk6GJQsqaUBKTNV-1">
          <mxGeometry x="354" y="1169" width="120" height="60" as="geometry" />
        </mxCell>
      </root>
    </mxGraphModel>
  </diagram>
</mxfile>
